# xmcd
#
# Track frame offsets: 
#        150
#        23539
#        33124
#        46467
#        70952
#        84083
#        95730
#        107647
#        123966
#        142357
#        157573
#        172759
#        193055
#        212074
#
# Disc length: 2985 seconds
#
# Revision: 2
# Processed by: cddbd v1.5.2PL0 Copyright (c) Steve Scherf et al.
# Submitted via: ExactAudioCopy v0.99pb4
#
DISCID=af0ba70e
DTITLE=Elmore James Jr. - Daddy Gave Me The Blues
DYEAR=2008
DGENRE=Blues
TTITLE0=Don't Get Me Mad
TTITLE1=Going Back Home
TTITLE2=Nora Mae
TTITLE3=Tore Down
TTITLE4=Oh Baby
TTITLE5=Daddy Gave Me The Blues
TTITLE6=The Misfit (Got To Keep Movin')
TTITLE7=I'll Get You
TTITLE8=Cummins Prison Farm
TTITLE9=Electric Man
TTITLE10=Steppin' With Elmo
TTITLE11=See See Rider
TTITLE12=Mean Little Linda
TTITLE13=Going Back Home (Acoustic)
EXTD=
EXTT0=
EXTT1=
EXTT2=
EXTT3=
EXTT4=
EXTT5=
EXTT6=
EXTT7=
EXTT8=
EXTT9=
EXTT10=
EXTT11=
EXTT12=
EXTT13=
PLAYORDER=
